<?xml version="1.0"?>
<svg xmlns="http://www.w3.org/2000/svg" xmlns:xlink="http://www.w3.org/1999/xlink" xmlns:svgjs="http://svgjs.com/svgjs" version="1.1" width="512" height="512" x="0" y="0" viewBox="0 0 384 384" style="enable-background:new 0 0 512 512" xml:space="preserve" class=""><g><path xmlns="http://www.w3.org/2000/svg" d="m224 0c-8.832031 0-16 7.167969-16 16v144c0 8.832031 7.167969 16 16 16h144c8.832031 0 16-7.167969 16-16 0-88.222656-71.777344-160-160-160zm16 144v-111c57.816406 7.238281 103.769531 53.191406 111.007812 111zm0 0" fill="#fafafa" data-original="#000000" style="" class=""/><path xmlns="http://www.w3.org/2000/svg" d="m160 64c-88.222656 0-160 71.777344-160 160s71.777344 160 160 160 160-71.777344 160-160c0-8.832031-7.167969-16-16-16h-128v-128c0-8.832031-7.167969-16-16-16zm126.886719 176c-7.910157 63.039062-61.734375 112-126.886719 112-70.574219 0-128-57.425781-128-128 0-65.152344 48.960938-118.976562 112-126.886719v126.886719c0 8.832031 7.167969 16 16 16zm0 0" fill="#fafafa" data-original="#000000" style="" class=""/></g></svg>
