<?xml version="1.0"?>
<svg xmlns="http://www.w3.org/2000/svg" xmlns:xlink="http://www.w3.org/1999/xlink" xmlns:svgjs="http://svgjs.com/svgjs" version="1.1" width="512" height="512" x="0" y="0" viewBox="0 0 512 512" style="enable-background:new 0 0 512 512" xml:space="preserve" class=""><g><g xmlns="http://www.w3.org/2000/svg"><path d="m151 150h150c8.284 0 15-6.716 15-15s-6.716-15-15-15h-150c-8.284 0-15 6.716-15 15s6.716 15 15 15z" fill="#fafafa" data-original="#000000" style="" class=""/><path d="m151 210h150c8.284 0 15-6.716 15-15s-6.716-15-15-15h-150c-8.284 0-15 6.716-15 15s6.716 15 15 15z" fill="#fafafa" data-original="#000000" style="" class=""/><path d="m151 270h150c8.284 0 15-6.716 15-15s-6.716-15-15-15h-150c-8.284 0-15 6.716-15 15s6.716 15 15 15z" fill="#fafafa" data-original="#000000" style="" class=""/><path d="m301 392c8.284 0 15-6.716 15-15v-61c0-8.284-6.716-15-15-15h-150c-8.284 0-15 6.716-15 15v61c0 8.284 6.716 15 15 15zm-135-61h120v31h-120z" fill="#fafafa" data-original="#000000" style="" class=""/><path d="m421 60h-45v-45c0-8.284-6.716-15-15-15h-270c-8.284 0-15 6.716-15 15v422c0 8.284 6.716 15 15 15h45v45c0 8.284 6.716 15 15 15h270c8.284 0 15-6.716 15-15v-422c0-8.284-6.716-15-15-15zm-15 60h-30v-30h30zm-60-60h-30v-30h30zm-60-30v30h-180v-30zm-180 60h240v332h-240zm60 392v-30h195c8.284 0 15-6.716 15-15v-287h30v332z" fill="#fafafa" data-original="#000000" style="" class=""/></g></g></svg>
