<?xml version="1.0"?>
<svg xmlns="http://www.w3.org/2000/svg" xmlns:xlink="http://www.w3.org/1999/xlink" xmlns:svgjs="http://svgjs.com/svgjs" version="1.1" width="512" height="512" x="0" y="0" viewBox="0 0 512 512" style="enable-background:new 0 0 512 512" xml:space="preserve" class=""><g><g xmlns="http://www.w3.org/2000/svg"><path d="m463.227 0h-414.454c-8.284 0-15 6.716-15 15v482c0 8.284 6.716 15 15 15h414.453c8.284 0 15-6.716 15-15v-482c.001-8.284-6.715-15-14.999-15zm-75 482h-264.454v-392h46.21v11.842c0 8.284 6.716 15 15 15h30.147c5.194 17.661 21.55 30.591 40.87 30.591 19.319 0 35.677-12.93 40.871-30.591h30.145c8.284 0 15-6.716 15-15v-11.842h46.21v392zm-76.21-395.158h-28.59c-4.259 0-8.316 1.811-11.162 4.979-2.845 3.169-4.209 7.398-3.751 11.632.052.48.078.947.078 1.388 0 6.943-5.648 12.592-12.592 12.592-6.942 0-12.591-5.648-12.591-12.592 0-.44.026-.907.078-1.388.457-4.234-.906-8.463-3.752-11.632-2.845-3.169-6.903-4.979-11.162-4.979h-28.591v-56.842h112.033v56.842zm-248.244-56.842h106.21v30h-61.21c-8.284 0-15 6.716-15 15v407h-30zm384.454 452h-30v-407c0-8.284-6.716-15-15-15h-61.21v-30h106.21z" fill="#fafafa" data-original="#000000" style="" class=""/><path d="m342.941 363.177h-61.513c-8.284 0-15 6.716-15 15v59.513c0 8.284 6.716 15 15 15h61.513c8.284 0 15-6.716 15-15v-59.513c0-8.284-6.715-15-15-15zm-15 59.513h-31.513v-29.513h31.513z" fill="#fafafa" data-original="#000000" style="" class=""/><path d="m222.093 393.177h-53.32c-8.284 0-15 6.716-15 15s6.716 15 15 15h53.32c8.284 0 15-6.716 15-15s-6.716-15-15-15z" fill="#fafafa" data-original="#000000" style="" class=""/><path d="m342.941 243.177h-61.513c-8.284 0-15 6.716-15 15v59.513c0 8.284 6.716 15 15 15h61.513c8.284 0 15-6.716 15-15v-59.513c0-8.284-6.715-15-15-15zm-15 59.513h-31.513v-29.513h31.513z" fill="#fafafa" data-original="#000000" style="" class=""/><path d="m168.428 303.177h52.513c8.284 0 15-6.716 15-15s-6.716-15-15-15h-52.513c-8.284 0-15 6.716-15 15s6.716 15 15 15z" fill="#fafafa" data-original="#000000" style="" class=""/><path d="m168.773 182.965c-8.284 0-15 6.716-15 15s6.716 15 15 15h174.453c8.284 0 15-6.716 15-15s-6.716-15-15-15z" fill="#fafafa" data-original="#000000" style="" class=""/></g></g></svg>
